<mxfile host="Electron" agent="Mozilla/5.0 (X11; Linux x86_64) AppleWebKit/537.36 (KHTML, like Gecko) draw.io/26.1.1 Chrome/132.0.6834.210 Electron/34.5.0 Safari/537.36" version="26.1.1">
  <diagram name="Page-1" id="pV0cdQJzculAOQKk89TL">
    <mxGraphModel dx="904" dy="972" grid="1" gridSize="10" guides="1" tooltips="1" connect="1" arrows="1" fold="1" page="1" pageScale="1" pageWidth="827" pageHeight="1169" math="0" shadow="0">
      <root>
        <mxCell id="0" />
        <mxCell id="1" parent="0" />
        <mxCell id="WgIUZTnd2WpkISXjd_PP-16" value="" style="rounded=0;whiteSpace=wrap;html=1;strokeColor=none;" vertex="1" parent="1">
          <mxGeometry x="25" y="290" width="750" height="220" as="geometry" />
        </mxCell>
        <mxCell id="M7QWCyDlwpbh8Tu6re-g-8" value="" style="rounded=1;whiteSpace=wrap;html=1;fillColor=none;dashed=1;movable=1;resizable=1;rotatable=1;deletable=1;editable=1;locked=0;connectable=1;fontColor=none;noLabel=1;glass=0;arcSize=5;" parent="1" vertex="1">
          <mxGeometry x="500" y="290" width="270" height="220" as="geometry" />
        </mxCell>
        <mxCell id="M7QWCyDlwpbh8Tu6re-g-30" value="" style="edgeStyle=orthogonalEdgeStyle;rounded=1;orthogonalLoop=1;jettySize=auto;html=1;strokeColor=#66a47f;strokeWidth=2;align=center;verticalAlign=middle;fontFamily=Latin Modern Mono;fontSize=21;fontColor=default;labelBackgroundColor=default;endArrow=block;endFill=0;fillColor=#66a47f;gradientColor=none;arcSize=10;" parent="1" source="M7QWCyDlwpbh8Tu6re-g-9" target="M7QWCyDlwpbh8Tu6re-g-29" edge="1">
          <mxGeometry relative="1" as="geometry" />
        </mxCell>
        <mxCell id="M7QWCyDlwpbh8Tu6re-g-9" value="ros_agent" style="ellipse;whiteSpace=wrap;html=1;fillColor=#66a47f;strokeColor=#66a47f;rounded=1;align=center;verticalAlign=middle;fontFamily=Latin Modern Mono;fontSize=21;fontColor=default;gradientColor=none;fillOpacity=30;" parent="1" vertex="1">
          <mxGeometry x="535" y="370" width="120" height="60" as="geometry" />
        </mxCell>
        <mxCell id="M7QWCyDlwpbh8Tu6re-g-34" style="edgeStyle=orthogonalEdgeStyle;rounded=0;orthogonalLoop=1;jettySize=auto;html=1;" parent="1" source="M7QWCyDlwpbh8Tu6re-g-2" target="M7QWCyDlwpbh8Tu6re-g-4" edge="1">
          <mxGeometry relative="1" as="geometry" />
        </mxCell>
        <mxCell id="M7QWCyDlwpbh8Tu6re-g-35" value="" style="edgeStyle=orthogonalEdgeStyle;rounded=0;orthogonalLoop=1;jettySize=auto;html=1;" parent="1" source="M7QWCyDlwpbh8Tu6re-g-2" target="M7QWCyDlwpbh8Tu6re-g-3" edge="1">
          <mxGeometry relative="1" as="geometry" />
        </mxCell>
        <mxCell id="M7QWCyDlwpbh8Tu6re-g-2" value="botbrain" style="rounded=1;whiteSpace=wrap;html=1;fontFamily=Latin Modern Mono;fontSize=21;" parent="1" vertex="1">
          <mxGeometry x="340" y="370" width="120" height="60" as="geometry" />
        </mxCell>
        <mxCell id="M7QWCyDlwpbh8Tu6re-g-3" value="simple_sim" style="rounded=1;whiteSpace=wrap;html=1;fontFamily=Latin Modern Mono;fontSize=21;" parent="1" vertex="1">
          <mxGeometry x="144" y="370" width="120" height="60" as="geometry" />
        </mxCell>
        <mxCell id="M7QWCyDlwpbh8Tu6re-g-4" value="" style="rounded=1;whiteSpace=wrap;html=1;fontFamily=Latin Modern Mono;fontSize=21;fillColor=none;" parent="1" vertex="1">
          <mxGeometry x="535" y="370" width="120" height="60" as="geometry" />
        </mxCell>
        <mxCell id="WgIUZTnd2WpkISXjd_PP-7" style="edgeStyle=orthogonalEdgeStyle;rounded=1;orthogonalLoop=1;jettySize=auto;html=1;entryX=0.5;entryY=1;entryDx=0;entryDy=0;strokeColor=#66a47f;strokeWidth=2;align=center;verticalAlign=middle;fontFamily=Latin Modern Mono;fontSize=21;fontColor=default;labelBackgroundColor=default;endArrow=block;endFill=0;fillColor=#66a47f;gradientColor=none;arcSize=10;" edge="1" parent="1" source="M7QWCyDlwpbh8Tu6re-g-16" target="M7QWCyDlwpbh8Tu6re-g-9">
          <mxGeometry relative="1" as="geometry">
            <Array as="points">
              <mxPoint x="550" y="450" />
              <mxPoint x="595" y="450" />
            </Array>
          </mxGeometry>
        </mxCell>
        <mxCell id="M7QWCyDlwpbh8Tu6re-g-16" value="" style="ellipse;whiteSpace=wrap;html=1;fillColor=#66a47f;strokeColor=#66a47f;rounded=1;align=center;verticalAlign=middle;fontFamily=Latin Modern Mono;fontSize=21;fontColor=default;gradientColor=none;fillOpacity=30;" parent="1" vertex="1">
          <mxGeometry x="540" y="460" width="19.5" height="20" as="geometry" />
        </mxCell>
        <mxCell id="M7QWCyDlwpbh8Tu6re-g-27" value="Sensor Nodes" style="text;html=1;align=center;verticalAlign=middle;whiteSpace=wrap;rounded=0;fontSize=13;fontFamily=Latin Modern Roman Demi;fontStyle=0" parent="1" vertex="1">
          <mxGeometry x="525" y="476" width="140" height="30" as="geometry" />
        </mxCell>
        <mxCell id="M7QWCyDlwpbh8Tu6re-g-29" value="Motor Control" style="ellipse;whiteSpace=wrap;html=1;fillColor=#7db392;strokeColor=#66a47f;rounded=1;align=center;verticalAlign=middle;fontFamily=Latin Modern Mono;fontSize=12;fontColor=default;gradientColor=none;fillOpacity=30;" parent="1" vertex="1">
          <mxGeometry x="690" y="380" width="65" height="40" as="geometry" />
        </mxCell>
        <mxCell id="M7QWCyDlwpbh8Tu6re-g-32" style="edgeStyle=orthogonalEdgeStyle;rounded=0;orthogonalLoop=1;jettySize=auto;html=1;exitX=0.5;exitY=1;exitDx=0;exitDy=0;" parent="1" edge="1">
          <mxGeometry relative="1" as="geometry">
            <mxPoint x="520.5" y="280" as="sourcePoint" />
            <mxPoint x="520.5" y="280" as="targetPoint" />
          </mxGeometry>
        </mxCell>
        <mxCell id="M7QWCyDlwpbh8Tu6re-g-36" value="&lt;div style=&quot;font-size: 15px;&quot;&gt;&lt;span style=&quot;background-color: initial; font-size: 15px;&quot;&gt;Core&amp;nbsp;&lt;/span&gt;&lt;span style=&quot;background-color: initial;&quot;&gt;Behavior&lt;/span&gt;&lt;/div&gt;&lt;div style=&quot;font-size: 15px;&quot;&gt;&lt;span style=&quot;background-color: initial;&quot;&gt;Library&lt;/span&gt;&lt;/div&gt;" style="text;html=1;align=center;verticalAlign=middle;resizable=0;points=[];autosize=1;strokeColor=none;fillColor=none;fontFamily=Latin Modern Roman Demi;fontSize=15;" parent="1" vertex="1">
          <mxGeometry x="340" y="310" width="120" height="50" as="geometry" />
        </mxCell>
        <mxCell id="M7QWCyDlwpbh8Tu6re-g-37" value="&lt;div style=&quot;font-size: 15px;&quot;&gt;Simple 2D&lt;/div&gt;&lt;div style=&quot;font-size: 15px;&quot;&gt;Simulator&lt;/div&gt;" style="text;html=1;align=center;verticalAlign=middle;resizable=0;points=[];autosize=1;strokeColor=none;fillColor=none;fontFamily=Latin Modern Roman Demi;fontSize=15;" parent="1" vertex="1">
          <mxGeometry x="159" y="310" width="90" height="50" as="geometry" />
        </mxCell>
        <mxCell id="M7QWCyDlwpbh8Tu6re-g-38" value="&lt;div style=&quot;font-size: 15px;&quot;&gt;Robot Behavior&lt;/div&gt;&lt;div style=&quot;font-size: 15px;&quot;&gt;Node&lt;/div&gt;" style="text;html=1;align=center;verticalAlign=middle;resizable=0;points=[];autosize=1;strokeColor=none;fillColor=none;fontFamily=Latin Modern Roman Demi;fontSize=15;" parent="1" vertex="1">
          <mxGeometry x="530" y="310" width="130" height="50" as="geometry" />
        </mxCell>
        <mxCell id="WgIUZTnd2WpkISXjd_PP-9" style="edgeStyle=orthogonalEdgeStyle;rounded=1;orthogonalLoop=1;jettySize=auto;html=1;entryX=0.5;entryY=1;entryDx=0;entryDy=0;strokeColor=#66a47f;strokeWidth=2;align=center;verticalAlign=middle;fontFamily=Latin Modern Mono;fontSize=21;fontColor=default;labelBackgroundColor=default;endArrow=block;endFill=0;fillColor=#66a47f;gradientColor=none;arcSize=10;" edge="1" parent="1" source="WgIUZTnd2WpkISXjd_PP-1" target="M7QWCyDlwpbh8Tu6re-g-9">
          <mxGeometry relative="1" as="geometry">
            <Array as="points">
              <mxPoint x="580" y="450" />
              <mxPoint x="595" y="450" />
            </Array>
          </mxGeometry>
        </mxCell>
        <mxCell id="WgIUZTnd2WpkISXjd_PP-1" value="" style="ellipse;whiteSpace=wrap;html=1;fillColor=#66a47f;strokeColor=#66a47f;rounded=1;align=center;verticalAlign=middle;fontFamily=Latin Modern Mono;fontSize=21;fontColor=default;gradientColor=none;fillOpacity=30;" vertex="1" parent="1">
          <mxGeometry x="570.5" y="460" width="19.5" height="20" as="geometry" />
        </mxCell>
        <mxCell id="WgIUZTnd2WpkISXjd_PP-10" style="edgeStyle=orthogonalEdgeStyle;rounded=1;orthogonalLoop=1;jettySize=auto;html=1;entryX=0.5;entryY=1;entryDx=0;entryDy=0;strokeColor=#66a47f;strokeWidth=2;align=center;verticalAlign=middle;fontFamily=Latin Modern Mono;fontSize=21;fontColor=default;labelBackgroundColor=default;endArrow=block;endFill=0;fillColor=#66a47f;gradientColor=none;arcSize=10;" edge="1" parent="1" source="WgIUZTnd2WpkISXjd_PP-4" target="M7QWCyDlwpbh8Tu6re-g-9">
          <mxGeometry relative="1" as="geometry">
            <Array as="points">
              <mxPoint x="610" y="450" />
              <mxPoint x="595" y="450" />
            </Array>
          </mxGeometry>
        </mxCell>
        <mxCell id="WgIUZTnd2WpkISXjd_PP-4" value="" style="ellipse;whiteSpace=wrap;html=1;fillColor=#66a47f;strokeColor=#66a47f;rounded=1;align=center;verticalAlign=middle;fontFamily=Latin Modern Mono;fontSize=21;fontColor=default;gradientColor=none;fillOpacity=30;" vertex="1" parent="1">
          <mxGeometry x="600" y="460" width="19.5" height="20" as="geometry" />
        </mxCell>
        <mxCell id="WgIUZTnd2WpkISXjd_PP-11" style="edgeStyle=orthogonalEdgeStyle;rounded=1;orthogonalLoop=1;jettySize=auto;html=1;entryX=0.5;entryY=1;entryDx=0;entryDy=0;strokeColor=#66a47f;strokeWidth=2;align=center;verticalAlign=middle;fontFamily=Latin Modern Mono;fontSize=21;fontColor=default;labelBackgroundColor=default;endArrow=block;endFill=0;fillColor=#66a47f;gradientColor=none;arcSize=10;" edge="1" parent="1" source="WgIUZTnd2WpkISXjd_PP-5" target="M7QWCyDlwpbh8Tu6re-g-9">
          <mxGeometry relative="1" as="geometry">
            <Array as="points">
              <mxPoint x="640" y="450" />
              <mxPoint x="595" y="450" />
            </Array>
          </mxGeometry>
        </mxCell>
        <mxCell id="WgIUZTnd2WpkISXjd_PP-5" value="" style="ellipse;whiteSpace=wrap;html=1;fillColor=#66a47f;strokeColor=#66a47f;rounded=1;align=center;verticalAlign=middle;fontFamily=Latin Modern Mono;fontSize=21;fontColor=default;gradientColor=none;fillOpacity=30;" vertex="1" parent="1">
          <mxGeometry x="630.5" y="460" width="19.5" height="20" as="geometry" />
        </mxCell>
        <mxCell id="WgIUZTnd2WpkISXjd_PP-13" value="ROS 2" style="text;html=1;align=center;verticalAlign=middle;resizable=0;points=[];autosize=1;strokeColor=none;fillColor=none;fontFamily=Latin Modern Roman Demi;fontSize=19;fontStyle=0" vertex="1" parent="1">
          <mxGeometry x="690" y="471" width="80" height="40" as="geometry" />
        </mxCell>
      </root>
    </mxGraphModel>
  </diagram>
</mxfile>
